# xmcd
#
# Track frame offsets: 
#        150
#        13651
#        27861
#        43940
#        55275
#        68386
#        80396
#        98003
#        107897
#        122829
#
# Disc length: 1811 seconds
#
# Revision: 0
# Processed by: cddbd v1.5.2PL0 Copyright (c) Steve Scherf et al.
# Submitted via: ExactAudioCopy v0.95b4
#
DISCID=7a07110a
DTITLE=Donna Fargo - Fargo Country
DYEAR=2005
DGENRE=Country
TTITLE0=Mockingbird Hill
TTITLE1=Do I Love You (Yes in Every Way)
TTITLE2=I want to learn a Love song
TTITLE3=Second Choice
TTITLE4=Sing me
TTITLE5=The Cricket Song
TTITLE6=A Couple More Years
TTITLE7=Hey, Mr Music Man
TTITLE8=That was Yesterday
TTITLE9=Gifts of Life
EXTD=
EXTT0=
EXTT1=
EXTT2=
EXTT3=
EXTT4=
EXTT5=
EXTT6=
EXTT7=
EXTT8=
EXTT9=
PLAYORDER=
